<svg class="diagram-root" style="background: #f5f6f6" xmlns="http://www.w3.org/2000/svg" xmlns:xlink="http://www.w3.org/1999/xlink"><style>.diagram-root { font-family: "Helvetica Neue", sans-serif; font-size: 12px; } .t { overflow: visible; } .t-bg { y: 40; fill: #fff;   } .th { fill: #005aa0;   } .tht { fill: #fff; font-size: 14px;  } .tf { fill: #323c46; overflow: visible; } .tf.pk { fill: #005aa0; font-weight: bold; } .tf.fk { font-weight: bold; } .ty { fill: #adb1b5; font-weight: normal; text-anchor: end; } .r { fill: transparent; stroke: #c3c3c3; stroke-width: 1; } .l { stroke: 1; } .i { fill: #c2c7ce; stroke: #c2c7ce; } .i.ix { fill: #afb3b6; stroke: #000; } .fa { fill: transparent; overflow: visible; } .fa .bg.hover { fill: #f7f7f7; } .c { cy: 12; r: 4; stroke: #d2d2dc; fill: #d2d2dc; } .hr { fill: transparent; stroke: #323c46; stroke-opacity: 0.035; stroke-width: 13; } .dc { stroke: #fa5a3c; fill: #fa5a3c; } .x { stroke: white; stroke-width: 1; } .hl .th { fill: #1b9bff; } .hl .tht {  } .fhl .bg { fill: #e7f4ff; } .fhls .bg {  } .r.hl { stroke: #1b9bff; } .dim { opacity: 0.25; }</style><g class="drawing-wrapper" transform="translate(-75, 9) scale(1,1)"><g class="rs"><path d="M 304.21 154 m -1, 0 a 1,1 0 1,0 2,0 a 1,1 0 1,0 -2,0 M 304.21 154 m -0.5, 0 a 0.5,0.5 0 1,0 1,0 a 0.5,0.5 0 1,0 -1,0  M304.21 154 L304.21 154 316.21 154 M 304.21 160 m -1, 0 a 1,1 0 1,0 2,0 a 1,1 0 1,0 -2,0 M 304.21 160 m -0.5, 0 a 0.5,0.5 0 1,0 1,0 a 0.5,0.5 0 1,0 -1,0  M304.21 160 L304.21 160 311.21 154 304.21 148 M 304.21 148 m -1, 0 a 1,1 0 1,0 2,0 a 1,1 0 1,0 -2,0 M 304.21 148 m -0.5, 0 a 0.5,0.5 0 1,0 1,0 a 0.5,0.5 0 1,0 -1,0  M316.21 154 Q 343.41 154, 370.61 116 T 425 78 M 437 78 m -1, 0 a 1,1 0 1,0 2,0 a 1,1 0 1,0 -2,0 M 437 78 m -0.5, 0 a 0.5,0.5 0 1,0 1,0 a 0.5,0.5 0 1,0 -1,0  M437 78 L437 78 425 78 M431 84 L431 84 431 72" id="h554752146" class="r"></path><path d="M 304.21 429 m -1, 0 a 1,1 0 1,0 2,0 a 1,1 0 1,0 -2,0 M 304.21 429 m -0.5, 0 a 0.5,0.5 0 1,0 1,0 a 0.5,0.5 0 1,0 -1,0  M304.21 429 L304.21 429 316.21 429 M 304.21 435 m -1, 0 a 1,1 0 1,0 2,0 a 1,1 0 1,0 -2,0 M 304.21 435 m -0.5, 0 a 0.5,0.5 0 1,0 1,0 a 0.5,0.5 0 1,0 -1,0  M304.21 435 L304.21 435 311.21 429 304.21 423 M 304.21 423 m -1, 0 a 1,1 0 1,0 2,0 a 1,1 0 1,0 -2,0 M 304.21 423 m -0.5, 0 a 0.5,0.5 0 1,0 1,0 a 0.5,0.5 0 1,0 -1,0  M316.21 429 Q 413.41 429, 510.61 298.5 T 705 168 M 717 168 m -1, 0 a 1,1 0 1,0 2,0 a 1,1 0 1,0 -2,0 M 717 168 m -0.5, 0 a 0.5,0.5 0 1,0 1,0 a 0.5,0.5 0 1,0 -1,0  M717 168 L717 168 705 168 M711 174 L711 174 711 162" id="h1965971059" class="r"></path><path d="M 304.21 454 m -1, 0 a 1,1 0 1,0 2,0 a 1,1 0 1,0 -2,0 M 304.21 454 m -0.5, 0 a 0.5,0.5 0 1,0 1,0 a 0.5,0.5 0 1,0 -1,0  M304.21 454 L304.21 454 316.21 454 M 304.21 460 m -1, 0 a 1,1 0 1,0 2,0 a 1,1 0 1,0 -2,0 M 304.21 460 m -0.5, 0 a 0.5,0.5 0 1,0 1,0 a 0.5,0.5 0 1,0 -1,0  M304.21 460 L304.21 460 311.21 454 304.21 448 M 304.21 448 m -1, 0 a 1,1 0 1,0 2,0 a 1,1 0 1,0 -2,0 M 304.21 448 m -0.5, 0 a 0.5,0.5 0 1,0 1,0 a 0.5,0.5 0 1,0 -1,0  M316.21 454 Q 405.66 454, 495.11 420 T 674 386 M 686 386 m -1, 0 a 1,1 0 1,0 2,0 a 1,1 0 1,0 -2,0 M 686 386 m -0.5, 0 a 0.5,0.5 0 1,0 1,0 a 0.5,0.5 0 1,0 -1,0  M686 386 L686 386 674 386 M680 392 L680 392 680 380" id="h2120212930" class="r"></path></g><g class="hrs"></g><g class="ts"><svg width="207.21" height="400" x="97" y="72" id="h3257514455" class="t"><rect height="40" width="207.21" class="th"></rect><text x="13" y="25" class="tht">campaign</text><rect height="360" width="207.21" class="t-bg"></rect><text x="13" y="61" class="tf pk">Cf_id<tspan x="194.21" class="ty">varchar(225)</tspan></text><path d="M7,14A2,2 0 0,1 5,12A2,2 0 0,1 7,10A2,2 0 0,1 9,12A2,2 0 0,1 7,14M12.65,10C11.83,7.67 9.61,6 7, 6A6, 6 0 0, 0 1, 12A6, 6 0 0, 0 7, 18C9.61, 18 11.83, 16.33 12.65, 14H17V18H21V14H23V10H12.65Z" class="i pk" transform="translate(103.35257812500001, 48) scale(0.65)"></path><text x="13" y="86" class="tf fk">Contact_id<tspan x="194.21" class="ty">int</tspan></text><text x="13" y="111" class="tf">Compant_name<tspan x="194.21" class="ty">varchar(225)</tspan></text><text x="13" y="136" class="tf">Description<tspan x="194.21" class="ty">varchar(225)</tspan></text><text x="13" y="161" class="tf">Goal<tspan x="194.21" class="ty">int</tspan></text><text x="13" y="186" class="tf">Pledges<tspan x="194.21" class="ty">int</tspan></text><text x="13" y="211" class="tf">Outcome<tspan x="194.21" class="ty">varchar(225)</tspan></text><text x="13" y="236" class="tf">Backers_count<tspan x="194.21" class="ty">int</tspan></text><text x="13" y="261" class="tf">Country<tspan x="194.21" class="ty">varchar(50)</tspan></text><text x="13" y="286" class="tf">Currency<tspan x="194.21" class="ty">varchar(50)</tspan></text><text x="13" y="311" class="tf">Launched_data<tspan x="194.21" class="ty">date</tspan></text><text x="13" y="336" class="tf">End_data<tspan x="194.21" class="ty">date</tspan></text><text x="13" y="361" class="tf fk">Category_id<tspan x="194.21" class="ty">varchar(225)</tspan></text><text x="13" y="386" class="tf fk">Subcategory_id<tspan x="194.21" class="ty">varchar(225)</tspan></text></svg><svg width="205.71" height="100" x="717" y="111" id="h2794354149" class="t"><rect height="40" width="205.71" class="th"></rect><text x="13" y="25" class="tht">category</text><rect height="60" width="205.71" class="t-bg"></rect><text x="13" y="61" class="tf pk">Category_id<tspan x="192.71" class="ty">varchar(225)</tspan></text><path d="M7,14A2,2 0 0,1 5,12A2,2 0 0,1 7,10A2,2 0 0,1 9,12A2,2 0 0,1 7,14M12.65,10C11.83,7.67 9.61,6 7, 6A6, 6 0 0, 0 1, 12A6, 6 0 0, 0 7, 18C9.61, 18 11.83, 16.33 12.65, 14H17V18H21V14H23V10H12.65Z" class="i pk" transform="translate(101.85257812500001, 48) scale(0.65)"></path><text x="13" y="86" class="tf">category<tspan x="192.71" class="ty">varchar(225)</tspan></text></svg><svg width="225.68" height="100" x="686" y="329" id="h1568904301" class="t"><rect height="40" width="225.68" class="th"></rect><text x="13" y="25" class="tht">subcategory</text><rect height="60" width="225.68" class="t-bg"></rect><text x="13" y="61" class="tf pk">Subcategory_id<tspan x="212.68" class="ty">varchar(225)</tspan></text><path d="M7,14A2,2 0 0,1 5,12A2,2 0 0,1 7,10A2,2 0 0,1 9,12A2,2 0 0,1 7,14M12.65,10C11.83,7.67 9.61,6 7, 6A6, 6 0 0, 0 1, 12A6, 6 0 0, 0 7, 18C9.61, 18 11.83, 16.33 12.65, 14H17V18H21V14H23V10H12.65Z" class="i pk" transform="translate(121.822578125, 48) scale(0.65)"></path><text x="13" y="86" class="tf">Subcategory<tspan x="212.68" class="ty">varchar(225)</tspan></text></svg><svg width="171.54" height="150" x="437" y="21" id="h4144639668" class="t"><rect height="40" width="171.54" class="th"></rect><text x="13" y="25" class="tht">contacts</text><rect height="110" width="171.54" class="t-bg"></rect><text x="13" y="61" class="tf pk">Contact_id<tspan x="158.54" class="ty">int</tspan></text><path d="M7,14A2,2 0 0,1 5,12A2,2 0 0,1 7,10A2,2 0 0,1 9,12A2,2 0 0,1 7,14M12.65,10C11.83,7.67 9.61,6 7, 6A6, 6 0 0, 0 1, 12A6, 6 0 0, 0 7, 18C9.61, 18 11.83, 16.33 12.65, 14H17V18H21V14H23V10H12.65Z" class="i pk" transform="translate(123.48140624999999, 48) scale(0.65)"></path><text x="13" y="86" class="tf">First_name<tspan x="158.54" class="ty">varchar(50)</tspan></text><text x="13" y="111" class="tf">Last_name<tspan x="158.54" class="ty">varchar(50)</tspan></text><text x="13" y="136" class="tf">Email<tspan x="158.54" class="ty">varchar(225)</tspan></text></svg></g></g><text class="qdbd-link" x="10" y="20">www.quickdatabasediagrams.com</text></svg>